<svg xmlns="http://www.w3.org/2000/svg" xmlns:xlink="http://www.w3.org/1999/xlink" width="1000" zoomAndPan="magnify" viewBox="0 0 750 187.499995" height="250" preserveAspectRatio="xMidYMid meet" version="1.0"><defs><g/><clipPath id="569107a2ff"><path d="M 618.058594 152.121094 L 730.222656 152.121094 L 730.222656 180.824219 L 618.058594 180.824219 Z M 618.058594 152.121094 " clip-rule="nonzero"/></clipPath><clipPath id="03a3741981"><path d="M 588.101562 4.160156 L 730.222656 4.160156 L 730.222656 180.613281 L 588.101562 180.613281 Z M 588.101562 4.160156 " clip-rule="nonzero"/></clipPath></defs><g clip-path="url(#569107a2ff)"><path fill="#214147" d="M 618.113281 153.058594 C 626.1875 153.042969 630.597656 155.847656 634.640625 158.421875 C 639.40625 161.453125 643.675781 164.167969 652.519531 161.933594 C 652.707031 161.886719 653.242188 161.710938 654.050781 161.453125 C 658.578125 159.992188 671.90625 155.6875 679.472656 155.59375 C 683.191406 155.546875 684.554688 156.335938 684.570312 157.519531 C 684.601562 160.117188 679.421875 164.671875 676.359375 167.359375 C 675.554688 168.0625 674.894531 168.644531 674.476562 169.0625 C 671.5625 171.988281 670.578125 174.746094 670.925781 176.761719 C 671.113281 177.855469 671.683594 178.734375 672.546875 179.320312 C 673.382812 179.882812 674.492188 180.160156 675.78125 180.070312 C 678.980469 179.847656 683.429688 177.332031 687.695312 171.242188 C 689.066406 169.289062 690.410156 167.382812 691.828125 166.097656 C 693.164062 164.886719 694.585938 164.226562 696.199219 164.621094 C 698.746094 165.242188 699.109375 167.625 699.507812 170.246094 C 699.949219 173.148438 700.433594 176.3125 703.621094 178.199219 C 706.511719 179.917969 708.9375 179.480469 711.4375 179.03125 C 713.3125 178.695312 715.234375 178.351562 717.394531 179.011719 C 719.570312 179.679688 721.835938 180.285156 724.136719 180.601562 C 726.152344 180.875 728.195312 180.925781 730.238281 180.589844 L 729.578125 179.59375 C 727.8125 179.824219 726.039062 179.765625 724.28125 179.527344 C 722.046875 179.21875 719.835938 178.625 717.710938 177.972656 C 715.300781 177.238281 713.25 177.605469 711.246094 177.964844 C 708.949219 178.378906 706.722656 178.777344 704.171875 177.265625 C 701.429688 175.640625 700.988281 172.738281 700.585938 170.085938 C 700.128906 167.082031 699.714844 164.359375 696.453125 163.566406 C 694.425781 163.070312 692.699219 163.851562 691.101562 165.292969 C 689.589844 166.65625 688.210938 168.617188 686.804688 170.621094 C 682.757812 176.402344 678.636719 178.785156 675.710938 178.988281 C 674.667969 179.058594 673.792969 178.847656 673.152344 178.417969 C 672.539062 178.003906 672.132812 177.371094 672 176.578125 C 671.707031 174.878906 672.609375 172.472656 675.246094 169.828125 C 675.613281 169.460938 676.273438 168.882812 677.078125 168.175781 L 677.074219 168.175781 C 680.277344 165.363281 685.691406 160.605469 685.65625 157.503906 C 685.628906 155.675781 683.972656 154.457031 679.460938 154.511719 C 671.722656 154.605469 658.285156 158.945312 653.71875 160.417969 C 652.945312 160.667969 652.429688 160.835938 652.257812 160.878906 C 643.859375 163 639.777344 160.402344 635.222656 157.507812 C 632.65625 155.875 629.945312 154.148438 626.28125 153.066406 C 623.566406 152.265625 619.976562 152.035156 618.113281 153.058594 " fill-opacity="1" fill-rule="nonzero"/></g><g clip-path="url(#03a3741981)"><path fill="#214147" d="M 718.230469 162.523438 C 722.972656 157.417969 720.195312 146.253906 718.492188 139.800781 C 716.140625 131.539062 713.335938 124.128906 710.351562 118.558594 C 705.554688 115.671875 686.011719 108.007812 671.871094 83.558594 L 688.640625 91.074219 C 667.976562 77.457031 654.039062 51.773438 628.246094 37.882812 C 628.246094 37.882812 645.722656 38.707031 655.003906 45.195312 C 655.003906 45.195312 644.15625 35.980469 616.753906 31.957031 L 626.992188 26.886719 L 613.03125 28.703125 C 613.03125 28.703125 606.242188 12.316406 588.101562 6.304688 C 588.101562 6.304688 652.558594 -8.71875 674.195312 40.789062 C 674.195312 40.789062 670.3125 28.523438 664.359375 17.957031 C 664.359375 17.957031 694.667969 24.425781 709.214844 65.820312 C 709.214844 65.820312 705.726562 48.832031 702.027344 41.257812 C 702.027344 41.257812 720.652344 57.910156 719.871094 90.894531 C 719.871094 90.894531 724.179688 79.78125 723.03125 70.527344 C 723.03125 70.527344 738.042969 90.953125 719.429688 114.222656 C 716.996094 108.792969 693.285156 53.589844 656.738281 34.699219 C 700.371094 66.960938 724.558594 127.59375 730.238281 180.589844 L 718.230469 162.523438 " fill-opacity="1" fill-rule="evenodd"/></g><g fill="#214147" fill-opacity="1"><g transform="translate(20.756044, 152.727307)"><g><path d="M 66.246094 -27.773438 C 62.878906 -20.558594 54.703125 -15.628906 46.289062 -15.628906 C 33.0625 -15.628906 22.484375 -26.929688 22.484375 -40.878906 C 22.484375 -54.703125 33.0625 -66.125 46.289062 -66.125 C 54.582031 -66.125 62.757812 -61.554688 66.125 -54.222656 L 86.203125 -54.222656 C 80.671875 -70.933594 64.921875 -82.957031 46.289062 -82.957031 C 23.082031 -82.957031 4.207031 -64.082031 4.207031 -40.878906 C 4.207031 -17.671875 23.082031 1.203125 46.289062 1.203125 C 64.921875 1.203125 80.792969 -10.941406 86.324219 -27.773438 Z M 66.246094 -27.773438 "/></g></g></g><g fill="#214147" fill-opacity="1"><g transform="translate(110.082616, 152.727307)"><g><path d="M 34.503906 -12.503906 C 24.765625 -12.503906 22.121094 -19.597656 22.121094 -26.328125 C 22.121094 -32.941406 25.007812 -40.035156 34.503906 -40.035156 C 43.882812 -40.035156 46.769531 -32.941406 46.769531 -26.328125 C 46.769531 -19.597656 44.125 -12.503906 34.503906 -12.503906 Z M 34.503906 -54.101562 C 17.914062 -54.101562 4.207031 -43.042969 4.207031 -26.449219 C 4.207031 -9.496094 17.554688 1.082031 34.503906 1.082031 C 51.335938 1.082031 64.683594 -9.496094 64.683594 -26.449219 C 64.683594 -43.042969 50.976562 -54.101562 34.503906 -54.101562 Z M 34.503906 -54.101562 "/></g></g></g><g fill="#214147" fill-opacity="1"><g transform="translate(178.971071, 152.727307)"><g><path d="M 61.4375 -30.058594 C 61.4375 -44.484375 55.664062 -54.222656 41.480469 -54.222656 C 34.503906 -54.222656 28.855469 -51.097656 25.246094 -46.527344 L 25.246094 -53.019531 L 7.214844 -53.019531 L 7.214844 0 L 25.246094 0 L 25.246094 -26.449219 C 25.246094 -33.664062 29.695312 -39.675781 35.347656 -39.675781 C 40.996094 -39.675781 43.402344 -36.308594 43.402344 -30.058594 L 43.402344 0 L 61.4375 0 Z M 61.4375 -30.058594 "/></g></g></g><g fill="#214147" fill-opacity="1"><g transform="translate(245.815712, 152.727307)"><g><path d="M 29.9375 -39.074219 L 39.554688 -39.074219 L 39.554688 -53.019531 L 29.9375 -53.019531 L 29.9375 -73.21875 L 12.023438 -73.21875 L 12.023438 -53.019531 L 2.40625 -53.019531 L 2.40625 -39.074219 L 12.023438 -39.074219 L 12.023438 0 L 29.9375 0 Z M 29.9375 -39.074219 "/></g></g></g><g fill="#214147" fill-opacity="1"><g transform="translate(287.773955, 152.727307)"><g><path d="M 23.566406 -32.820312 C 23.566406 -32.820312 24.164062 -42.679688 35.46875 -42.679688 C 46.40625 -42.679688 47.25 -32.820312 47.25 -32.820312 Z M 64.5625 -27.652344 C 64.5625 -44.605469 51.21875 -54.222656 35.105469 -54.222656 C 17.3125 -54.222656 4.207031 -43.042969 4.207031 -26.449219 C 4.207031 -9.617188 16.832031 1.203125 35.105469 1.203125 C 49.171875 1.203125 60.472656 -5.769531 63.601562 -19.71875 L 45.207031 -19.71875 C 45.085938 -15.871094 41.117188 -11.660156 34.746094 -11.660156 C 27.652344 -11.660156 23.324219 -18.15625 23.324219 -24.285156 L 64.441406 -24.285156 C 64.441406 -25.367188 64.5625 -26.570312 64.5625 -27.652344 Z M 64.5625 -27.652344 "/></g></g></g><g fill="#214147" fill-opacity="1"><g transform="translate(356.542204, 152.727307)"><g><path d="M 61.4375 -30.058594 C 61.4375 -44.484375 55.664062 -54.222656 41.480469 -54.222656 C 34.503906 -54.222656 28.855469 -51.097656 25.246094 -46.527344 L 25.246094 -53.019531 L 7.214844 -53.019531 L 7.214844 0 L 25.246094 0 L 25.246094 -26.449219 C 25.246094 -33.664062 29.695312 -39.675781 35.347656 -39.675781 C 40.996094 -39.675781 43.402344 -36.308594 43.402344 -30.058594 L 43.402344 0 L 61.4375 0 Z M 61.4375 -30.058594 "/></g></g></g><g fill="#214147" fill-opacity="1"><g transform="translate(423.38687, 152.727307)"><g><path d="M 29.9375 -39.074219 L 39.554688 -39.074219 L 39.554688 -53.019531 L 29.9375 -53.019531 L 29.9375 -73.21875 L 12.023438 -73.21875 L 12.023438 -53.019531 L 2.40625 -53.019531 L 2.40625 -39.074219 L 12.023438 -39.074219 L 12.023438 0 L 29.9375 0 Z M 29.9375 -39.074219 "/></g></g></g><g fill="#214147" fill-opacity="1"><g transform="translate(465.345113, 152.727307)"><g><path d="M 54.582031 -16.351562 L 25.246094 -16.351562 L 25.246094 -32.820312 L 53.382812 -32.820312 L 53.382812 -49.171875 L 25.246094 -49.171875 L 25.246094 -65.402344 L 54.582031 -65.402344 L 54.582031 -81.753906 L 7.214844 -81.753906 L 7.214844 0 L 54.582031 0 Z M 54.582031 -16.351562 "/></g></g></g><g fill="#214147" fill-opacity="1"><g transform="translate(527.140333, 152.727307)"><g><path d="M 25.246094 -29.214844 L 25.367188 -29.214844 L 44.84375 0 L 67.6875 0 L 44.242188 -30.058594 C 54.582031 -32.582031 62.878906 -41.71875 62.878906 -55.546875 C 62.878906 -71.054688 51.097656 -81.753906 37.871094 -81.753906 L 7.214844 -81.753906 L 7.214844 0 L 25.246094 0 Z M 34.867188 -67.566406 C 40.15625 -67.566406 45.6875 -63 45.6875 -55.546875 C 45.6875 -47.730469 40.15625 -43.402344 34.867188 -43.402344 L 25.246094 -43.402344 L 25.246094 -67.566406 Z M 34.867188 -67.566406 "/></g></g></g><g fill="#214147" fill-opacity="1"><g transform="translate(593.38386, 152.727307)"><g><path d="M 25.246094 -29.214844 L 37.871094 -29.214844 C 51.097656 -29.214844 62.878906 -38.953125 62.878906 -55.546875 C 62.878906 -71.054688 51.097656 -81.753906 37.871094 -81.753906 L 7.214844 -81.753906 L 7.214844 0 L 25.246094 0 Z M 34.867188 -67.566406 C 40.15625 -67.566406 45.6875 -63 45.6875 -55.546875 C 45.6875 -47.730469 40.15625 -43.402344 34.867188 -43.402344 L 25.246094 -43.402344 L 25.246094 -67.566406 Z M 34.867188 -67.566406 "/></g></g></g></svg>